inDegrees=no
num_controls=7
num_derivatives=13
num_iterations=107
num_multipliers=7
num_parameters=0
num_slacks=7
num_states=26
objective=0.484762
objective_accelerations=0.028385
objective_balance=0.007731
objective_effort=0.062930
objective_height=0.379853
objective_ligament=0.005862
solver_duration=1438.822432
status=Solve_Succeeded
success=true
DataType=double
version=3
OpenSimVersion=4.5
endheader
time	/jointset/ground_pelvis/pelvis_tilt/value	/jointset/ground_pelvis/pelvis_tx/value	/jointset/ground_pelvis/pelvis_ty/value	/jointset/hip_l/hip_flexion_l/value	/jointset/hip_l/hip_adduction_l/value	/jointset/hip_l/hip_rotation_l/value	/jointset/back/lumbar_extension/value	/jointset/patellofemoral_l/patellar_flexion_l/value	/jointset/knee_l/knee_flexion_l/value	/jointset/knee_l/knee_adduction_l/value	/jointset/knee_l/knee_rotation_l/value	/jointset/ankle_l/ankle_angle_l/value	/jointset/subtalar_l/subtalar_angle_l/value	/jointset/ground_pelvis/pelvis_tilt/speed	/jointset/ground_pelvis/pelvis_tx/speed	/jointset/ground_pelvis/pelvis_ty/speed	/jointset/hip_l/hip_flexion_l/speed	/jointset/hip_l/hip_adduction_l/speed	/jointset/hip_l/hip_rotation_l/speed	/jointset/back/lumbar_extension/speed	/jointset/patellofemoral_l/patellar_flexion_l/speed	/jointset/knee_l/knee_flexion_l/speed	/jointset/knee_l/knee_adduction_l/speed	/jointset/knee_l/knee_rotation_l/speed	/jointset/ankle_l/ankle_angle_l/speed	/jointset/subtalar_l/subtalar_angle_l/speed	/forceset/tau_hip_flexion_l	/forceset/tau_hip_adduction_l	/forceset/tau_hip_rotation_l	/forceset/tau_knee_flexion_l	/forceset/tau_ankle_angle_l	/forceset/tau_subtalar_angle_l	/forceset/tau_lumbar_extension	lambda_cid13_p0	lambda_cid13_p1	lambda_cid13_p2	lambda_cid13_p3	lambda_cid13_p4	lambda_cid13_p5	lambda_cid14_p0	/jointset/ground_pelvis/pelvis_tilt/accel	/jointset/ground_pelvis/pelvis_tx/accel	/jointset/ground_pelvis/pelvis_ty/accel	/jointset/hip_l/hip_flexion_l/accel	/jointset/hip_l/hip_adduction_l/accel	/jointset/hip_l/hip_rotation_l/accel	/jointset/back/lumbar_extension/accel	/jointset/patellofemoral_l/patellar_flexion_l/accel	/jointset/knee_l/knee_flexion_l/accel	/jointset/knee_l/knee_adduction_l/accel	/jointset/knee_l/knee_rotation_l/accel	/jointset/ankle_l/ankle_angle_l/accel	/jointset/subtalar_l/subtalar_angle_l/accel	gamma_cid13_p0	gamma_cid13_p1	gamma_cid13_p2	gamma_cid13_p3	gamma_cid13_p4	gamma_cid13_p5	gamma_cid14_p0
1.5	-0.4888147959458442	-0.07512791624952758	0.8078145229905302	1.134621232237973	-0.107403680750523	-0.07470525457663027	-0.3280421395810996	0.3911281604263791	0.3911281604263767	0.1741151278417403	0.003805827668743161	-0.05235954623080558	0.1345165394266206	0.964341672217252	0.2692658163087583	0.3213904793190576	-1.981907423957695	0.09889858282067708	0.2837587962058269	0.5745700893244163	-0.9435505150528076	-0.9435505150527909	0.001217264844273392	-0.4417441418975618	1.771035763576965e-07	0.1025518076361215	-0.2657902724714905	0.03700583642461441	-0.0183430164586131	-0.0927093686871647	0.1061092824453897	0.07351836112102342	0.2288867928483641	-1.208840337603088	-21.85863168886302	-8.178599887282104	3.452833758319891	-612.4805499290634	-72.87110240606249	-37.91571809924048	0.3082457472608601	0.426220405775866	-0.08052374481227793	-1.297557708062988	-0.2547781850097736	0.4146198459303957	1.385353804152172	-0.7982081585463436	-0.7982081585463403	-0.0336409749611003	-0.4471873910077824	2.333323689029493e-05	-0.2705372641984153	9.759755340093483e-08	-3.090088625526404e-07	-1.114570239726673e-07	-5.547900625256153e-08	4.179217327342636e-08	-2.956717735801601e-08	2.947548856686569e-08
1.51	-0.4791568863567738	-0.07241426847654617	0.8110238190514042	1.114739502839936	-0.106427429902992	-0.07184648260208185	-0.3222284835851355	0.3816540568857494	0.3816540568857398	0.1741259846386655	-0.0006343236463072781	-0.05235954945061943	0.1355285058606131	0.9671089642008985	0.2734276056971813	0.3204045873703346	-1.994159864071945	0.09632432473815641	0.2879722503900644	0.5880778379241717	-0.9511319839987312	-0.9511319839987193	0.0009561446195712707	-0.4462367150553807	-4.725792764558839e-07	0.09981205917072211	-0.2566335834368701	0.03621633393887826	-0.01671650774994651	-0.09463037143783316	0.1078480186363844	0.07345632564155653	0.2221794004202013	-0.4663354917115194	-21.78958410528091	-8.386202201740554	3.325243531832811	-609.1476413241421	-73.07577079931326	-37.99101729300216	0.2412951956338676	0.4057262655787642	-0.1172315273438703	-1.147280261913361	-0.2627913080837863	0.4211825390168458	1.320994596246719	-0.7173909084514113	-0.7173909084521296	-0.02209623941898832	-0.4428930723639239	-5.003040452664101e-05	-0.2800542573123204	1.000442233810466e-07	-3.014426243101584e-07	-8.14703456447496e-08	-5.863191526674936e-08	5.452007394782664e-08	-3.219209043766752e-08	2.984470308914132e-08
1.52	-0.4694752389935231	-0.06966008919763986	0.8142213342713028	1.094743610420995	-0.1054777299739283	-0.06894628121882165	-0.3162822482615018	0.3721082837264932	0.3721082837264768	0.1741342804947054	-0.005117920851774617	-0.05235954734953989	0.1365122026860312	0.9690892270532366	0.2773721174937307	0.3190343111239524	-2.004740028138488	0.09358839912721287	0.2920446779481586	0.6010859548583072	-0.9578844387780961	-0.9578844387780889	0.0007050766671003624	-0.450433319980999	1.241283544262614e-06	0.096897885921258	-0.247476894402249	0.03542683145314206	-0.01508999904127692	-0.09655137418850011	0.1095867548273795	0.0733942901620897	0.2154720079920391	0.273599529435425	-21.71565833874975	-8.599640260766529	3.202497947350398	-605.8416246054536	-73.24713101830639	-38.05616640598254	0.1508399209991596	0.382764887401142	-0.1574006043441478	-0.9631024985214083	-0.2871116906943467	0.3864145207017444	1.28542747102819	-0.6324053252345816	-0.6324053252346037	-0.03163052051485713	-0.3879937445676876	0.0004960423715857892	-0.3054222210113586	1.029140854682996e-07	-2.926835712337744e-07	-5.092987037317499e-08	-6.190228212736636e-08	6.758875043224176e-08	-3.539555069433617e-08	3.032614051742083e-08
1.53	-0.4597776814251914	-0.066867600267179	0.8174032511770022	1.074650271556271	-0.1045561121068071	-0.0660063367730233	-0.3102086176401841	0.3624990619769702	0.3624990619769664	0.174140303595172	-0.00964176499427644	-0.05235955192539726	0.1374659631849168	0.9702901468725272	0.2810842186283376	0.3172860887293251	-2.013637517959657	0.09071117226029826	0.2959171315935516	0.613543651147231	-0.9638130716337472	-0.9638130716337333	0.0005032808764173609	-0.4542820346664246	-1.509122089661455e-06	0.09382828386550385	-0.2382229775372684	0.03465433813185866	-0.01340860833838919	-0.09865767538307547	0.1115213739488685	0.07336994991116114	0.2086483535119832	1.0703900907221	-21.65190140329332	-8.829912596726082	3.064175053665901	-602.6391893014759	-73.44407204361852	-38.11127794643768	0.08491361239617169	0.3592018079258806	-0.1929626080778989	-0.8095193260488386	-0.2915927313600264	0.3835692506531148	1.211462969119953	-0.5510725915167637	-0.5510725915157512	-0.01394009215418481	-0.3753106248036501	-0.0005541326907045098	-0.311577274521953	1.062335891693899e-07	-2.826571523963695e-07	-1.980098584896492e-08	-6.529744794981431e-08	8.101950121479768e-08	-3.921371732658553e-08	3.092681478332948e-08
1.54	-0.4500720755386662	-0.06403923650908501	0.8205657999485441	1.054476668372908	-0.1036639794176891	-0.06302848609793196	-0.3040133056037179	0.3528349578337334	0.3528349578337424	0.1741444115409704	-0.01420249634248703	-0.05235956271544232	0.138388258047912	0.9706988906919043	0.2845470830203595	0.3151606842924647	-2.020792891866191	0.08769136352658338	0.2996259238067459	0.6254222378879738	-0.9688609175208539	-0.9688609175208331	0.000322045733367813	-0.4578107611227963	-1.554116719779071e-09	0.09060475874316924	-0.2289690606722861	0.03388184481057501	-0.01172721763549872	-0.1007639765776498	0.1134559930703576	0.07334560966023232	0.201824699031929	1.865736086423167	-21.58314883375147	-9.066398631121316	2.927393807789279	-599.4478985141546	-73.60144040830812	-38.15654928777103	-0.007595278983524284	0.3329175388841391	-0.2328370127907676	-0.6146793155943424	-0.3156280640543997	0.3536822342619777	1.169605561391986	-0.4562479315256849	-0.4562479315256849	-0.02751839098816522	-0.3239960987568996	0.001347637092937139	-0.3362068343274534	1.093561082504755e-07	-2.720472266510931e-07	9.969057277920776e-09	-6.805246581959879e-08	9.421692144581307e-08	-4.328862785986597e-08	3.154288423224944e-08
1.55	-0.4403663064520552	-0.06117754566276383	0.8237052358246165	1.034240243529209	-0.1028026835026053	-0.06001463678246949	-0.2977022944271544	0.3431247372162167	0.343124737216216	0.1741469612761495	-0.01879666657939088	-0.0523595706655804	0.1392776153093953	0.9703207513802277	0.2877435760017809	0.3126648967326229	-2.02618740476878	0.08454649539521246	0.3031118290279275	0.6366699398174227	-0.9730265937059652	-0.973026593705942	0.0001916137043021923	-0.4609638323692578	-1.030023254897459e-06	0.08724360366411096	-0.2196445316002508	0.03303802202966737	-0.009996874666008551	-0.1030593609250868	0.1155411441428711	0.07345805165590322	0.1949040649608395	2.707259157053993	-21.56334862634588	-9.31625457864528	2.788378995470019	-596.4037792394837	-73.86888722659987	-38.19210962926762	-0.07303275235068399	0.3058744033004636	-0.2671658903863893	-0.4561167784007068	-0.317090461379222	0.3411932321950985	1.085843867620814	-0.3732421262939124	-0.3732421262935459	-0.005285680713836166	-0.3020743055053735	-0.0007325772631023868	-0.3395025275741427	1.122516667911208e-07	-2.607649994684866e-07	3.817347879484587e-08	-7.006992191783627e-08	1.071455043022275e-07	-4.765935201824742e-08	3.217669160942157e-08
1.56	-0.4306683406575791	-0.05828531804152258	0.8268178705725296	1.013959017656322	-0.1019734711235754	-0.05696689870156541	-0.2912821079595163	0.3333775569039908	0.3333775569039805	0.1741483106766687	-0.02342058986234209	-0.05235956979806905	0.1401326744835121	0.9691382322649131	0.2906544380043747	0.3098004586605618	-2.029753097703753	0.08127465631581032	0.3064036768950628	0.6472572961028507	-0.9762528564626789	-0.9762528564626534	8.197880131348266e-05	-0.4637613703323034	1.761973770558792e-06	0.08374514126988751	-0.2103200025282123	0.03219419924875943	-0.008266531696515944	-0.1053547452725233	0.1176262952153843	0.07357049365157368	0.1879834308897534	3.548072534027741	-21.53844206307248	-9.572615325726712	2.649758311376478	-593.3604862887655	-74.09174860499637	-38.21759384419272	-0.1684712397110971	0.2757913431186179	-0.306567115234647	-0.2489153220713655	-0.3410222536606427	0.314870763452707	1.037536432587816	-0.268365245846178	-0.2683652458461674	-0.02335896577278263	-0.2528894420737243	0.002111730325657425	-0.3636682973604896	1.154200715222896e-07	-2.485753233435228e-07	6.608552345012132e-08	-7.197362914661226e-08	1.199926669946964e-07	-5.24201632716926e-08	3.291097692028839e-08
1.57	-0.4209861878448382	-0.05536546290523469	0.8299000522372372	0.9936512940828952	-0.1011775250308522	-0.05388748141764664	-0.2847595294776786	0.3236027625280188	0.3236027625280113	0.1741488252071419	-0.0280704668167185	-0.05235955440227829	0.1409521435270416	0.9671560523097137	0.2932633041416476	0.3065765037573701	-2.03147323469725	0.07789704168796555	0.3094433431430819	0.6571355735899689	-0.9785399375110412	-0.9785399375110175	2.55283983280527e-05	-0.4661498169460458	2.091632972105773e-06	0.08012970609018601	-0.200961617408759	0.0313779395110975	-0.006490670538536401	-0.1078588048601703	0.1199225418666395	0.07373129183529452	0.1809998651198026	4.444144061825736	-21.52677535193159	-9.846782049271432	2.504045491107761	-590.5289510289276	-74.35697616839443	-38.23295578174803	-0.233515860333951	0.2454265324487426	-0.3391872411314247	-0.08578488120880018	-0.3387467932228413	0.2930091583892629	0.9445494055607663	-0.1839742044108496	-0.1839742044111413	0.003875621578905798	-0.2222293222398118	-0.0008757339272611107	-0.3633056696319711	1.189295339916127e-07	-2.352513360406126e-07	9.363209702833472e-08	-7.373515028856139e-08	1.327380544822335e-07	-5.766858339396742e-08	3.377085964827355e-08
1.58	-0.4113279417290311	-0.05242112065089065	0.8329482188402587	0.9733359247408898	-0.1004158782295829	-0.05077876855066507	-0.2781418530212121	0.3138100784075472	0.3138100784075427	0.1741489079734136	-0.03274230964747524	-0.05235950957342386	0.1417348933105028	0.9643568928781306	0.2955518616156045	0.3029974463233799	-2.031282251419546	0.07441479802506303	0.3122627935076105	0.6662768910285648	-0.9798308053625873	-0.9798308053625655	-4.374039044291965e-06	-0.4681545456084009	7.64858638717462e-06	0.07640128925620486	-0.1916032322893015	0.03056167977343529	-0.004714809380554431	-0.1103628644478166	0.1222187885178943	0.07389209001901496	0.1740162993498562	5.340090688382326	-21.50988796511766	-10.12771932826871	2.357975907216453	-587.6896428308825	-74.57289440158577	-38.2382207481435	-0.3318671349878506	0.2117296104553969	-0.3775876213942996	0.1333087321687585	-0.361948060672193	0.2708275867545856	0.8901444228833492	-0.06912260648291033	-0.06912260648291101	-0.0180493726501663	-0.1761458517962614	0.003157189168373635	-0.3862646282164185	1.22530344878394e-07	-2.208841924011481e-07	1.204935909019972e-07	-7.529447349548457e-08	1.453222042028251e-07	-6.30834773234116e-08	3.466694014768439e-08
